<svg width="768" height="459" viewBox="0 0 768 459" fill="none" xmlns="http://www.w3.org/2000/svg">
<path d="M93.3584 277.391H116.479V400H93.3584V348.854H84.2502C59.9035 348.854 34.3307 355.685 34.3307 400H11.3852V277.391H34.3307V351.482C46.9419 331.689 67.0849 327.836 80.5719 327.836H93.3584V277.391ZM149.315 292.629C142.309 292.629 136.704 286.849 136.704 280.018C136.704 273.012 142.309 267.231 149.315 267.231C156.322 267.231 161.927 273.012 161.927 280.018C161.927 286.849 156.322 292.629 149.315 292.629ZM160.35 400H138.28V305.416H160.35V400ZM237.093 347.628L273.526 400H247.252L223.957 366.545L200.486 400H181.218V267.231H203.288V359.364L240.947 305.24H266.52L237.093 347.628ZM338.434 367.071H361.379C361.379 390.542 346.666 402.627 320.918 402.627C292.543 402.627 275.202 381.433 275.202 352.708C275.202 318.727 298.498 304.189 319.867 302.613C345.265 300.861 359.628 313.648 359.628 331.164C359.628 341.498 356.825 349.73 342.812 355.861L303.227 372.676C307.256 378.806 313.211 382.134 320.042 382.134C330.376 382.134 338.434 377.755 338.434 367.071ZM298.148 352.708C298.148 354.109 298.148 355.335 298.323 356.736L330.902 342.724C334.58 341.147 337.558 339.396 337.558 334.842C337.558 327.31 330.201 322.406 321.794 322.406C310.759 322.406 298.148 330.813 298.148 352.708Z" fill="#F36F25"/>
<path d="M93.3584 277.391V274.891H90.8584V277.391H93.3584ZM116.479 277.391H118.979V274.891H116.479V277.391ZM116.479 400V402.5H118.979V400H116.479ZM93.3584 400H90.8584V402.5H93.3584V400ZM93.3584 348.854H95.8584V346.354H93.3584V348.854ZM34.3307 400V402.5H36.8307V400H34.3307ZM11.3852 400H8.88517V402.5H11.3852V400ZM11.3852 277.391V274.891H8.88517V277.391H11.3852ZM34.3307 277.391H36.8307V274.891H34.3307V277.391ZM34.3307 351.482H31.8307V360.058L36.439 352.825L34.3307 351.482ZM93.3584 327.836V330.336H95.8584V327.836H93.3584ZM93.3584 277.391V279.891H116.479V277.391V274.891H93.3584V277.391ZM116.479 277.391H113.979V400H116.479H118.979V277.391H116.479ZM116.479 400V397.5H93.3584V400V402.5H116.479V400ZM93.3584 400H95.8584V348.854H93.3584H90.8584V400H93.3584ZM93.3584 348.854V346.354H84.2502V348.854V351.354H93.3584V348.854ZM84.2502 348.854V346.354C71.9402 346.354 58.7533 348.058 48.6377 355.826C38.384 363.701 31.8307 377.36 31.8307 400H34.3307H36.8307C36.8307 378.325 43.0638 366.411 51.6831 359.792C60.4406 353.066 72.2135 351.354 84.2502 351.354V348.854ZM34.3307 400V397.5H11.3852V400V402.5H34.3307V400ZM11.3852 400H13.8852V277.391H11.3852H8.88517V400H11.3852ZM11.3852 277.391V279.891H34.3307V277.391V274.891H11.3852V277.391ZM34.3307 277.391H31.8307V351.482H34.3307H36.8307V277.391H34.3307ZM34.3307 351.482L36.439 352.825C48.3911 334.067 67.4843 330.336 80.5719 330.336V327.836V325.336C66.6855 325.336 45.4927 329.311 32.2223 350.138L34.3307 351.482ZM80.5719 327.836V330.336H93.3584V327.836V325.336H80.5719V327.836ZM93.3584 327.836H95.8584V277.391H93.3584H90.8584V327.836H93.3584ZM160.35 400V402.5H162.85V400H160.35ZM138.28 400H135.78V402.5H138.28V400ZM138.28 305.416V302.916H135.78V305.416H138.28ZM160.35 305.416H162.85V302.916H160.35V305.416ZM149.315 292.629V290.129C143.712 290.129 139.204 285.491 139.204 280.018H136.704H134.204C134.204 288.207 140.906 295.129 149.315 295.129V292.629ZM136.704 280.018H139.204C139.204 274.347 143.734 269.731 149.315 269.731V267.231V264.731C140.884 264.731 134.204 271.676 134.204 280.018H136.704ZM149.315 267.231V269.731C154.896 269.731 159.427 274.347 159.427 280.018H161.927H164.427C164.427 271.676 157.747 264.731 149.315 264.731V267.231ZM161.927 280.018H159.427C159.427 285.491 154.918 290.129 149.315 290.129V292.629V295.129C157.725 295.129 164.427 288.207 164.427 280.018H161.927ZM160.35 400V397.5H138.28V400V402.5H160.35V400ZM138.28 400H140.78V305.416H138.28H135.78V400H138.28ZM138.28 305.416V307.916H160.35V305.416V302.916H138.28V305.416ZM160.35 305.416H157.85V400H160.35H162.85V305.416H160.35ZM237.093 347.628L235.04 346.203L234.049 347.63L235.041 349.056L237.093 347.628ZM273.526 400V402.5H278.31L275.578 398.572L273.526 400ZM247.252 400L245.201 401.429L245.947 402.5H247.252V400ZM223.957 366.545L226.008 365.117L223.964 362.181L221.91 365.109L223.957 366.545ZM200.486 400V402.5H201.786L202.532 401.436L200.486 400ZM181.218 400H178.718V402.5H181.218V400ZM181.218 267.231V264.731H178.718V267.231H181.218ZM203.288 267.231H205.788V264.731H203.288V267.231ZM203.288 359.364H200.788V367.334L205.34 360.792L203.288 359.364ZM240.947 305.24V302.74H239.641L238.895 303.813L240.947 305.24ZM266.52 305.24L268.573 306.666L271.298 302.74H266.52V305.24ZM237.093 347.628L235.041 349.056L271.474 401.428L273.526 400L275.578 398.572L239.146 346.201L237.093 347.628ZM273.526 400V397.5H247.252V400V402.5H273.526V400ZM247.252 400L249.304 398.571L226.008 365.117L223.957 366.545L221.905 367.974L245.201 401.429L247.252 400ZM223.957 366.545L221.91 365.109L198.439 398.564L200.486 400L202.532 401.436L226.003 367.981L223.957 366.545ZM200.486 400V397.5H181.218V400V402.5H200.486V400ZM181.218 400H183.718V267.231H181.218H178.718V400H181.218ZM181.218 267.231V269.731H203.288V267.231V264.731H181.218V267.231ZM203.288 267.231H200.788V359.364H203.288H205.788V267.231H203.288ZM203.288 359.364L205.34 360.792L242.999 306.668L240.947 305.24L238.895 303.813L201.236 357.936L203.288 359.364ZM240.947 305.24V307.74H266.52V305.24V302.74H240.947V305.24ZM266.52 305.24L264.466 303.815L235.04 346.203L237.093 347.628L239.147 349.054L268.573 306.666L266.52 305.24ZM338.434 367.071V364.571H335.934V367.071H338.434ZM361.379 367.071H363.879V364.571H361.379V367.071ZM319.867 302.613L319.695 300.119L319.683 300.12L319.867 302.613ZM342.812 355.861L343.79 358.162L343.802 358.156L343.815 358.151L342.812 355.861ZM303.227 372.676L302.25 370.375L299.493 371.546L301.138 374.049L303.227 372.676ZM298.323 356.736L295.842 357.046L296.255 360.347L299.311 359.033L298.323 356.736ZM330.902 342.724L329.917 340.426L329.914 340.427L330.902 342.724ZM338.434 367.071V369.571H361.379V367.071V364.571H338.434V367.071ZM361.379 367.071H358.879C358.879 378.261 355.393 386.385 349.17 391.758C342.886 397.184 333.442 400.127 320.918 400.127V402.627V405.127C334.142 405.127 344.928 402.027 352.438 395.543C360.009 389.005 363.879 379.351 363.879 367.071H361.379ZM320.918 402.627V400.127C307.396 400.127 296.665 395.099 289.29 386.781C281.886 378.431 277.702 366.578 277.702 352.708H275.202H272.702C272.702 367.563 277.189 380.67 285.549 390.098C293.937 399.559 306.065 405.127 320.918 405.127V402.627ZM275.202 352.708H277.702C277.702 336.337 283.29 324.885 291.244 317.321C299.247 309.709 309.833 305.86 320.051 305.106L319.867 302.613L319.683 300.12C308.532 300.942 296.786 305.15 287.798 313.697C278.762 322.291 272.702 335.098 272.702 352.708H275.202ZM319.867 302.613L320.039 305.107C332.311 304.261 341.597 306.947 347.754 311.65C353.865 316.317 357.128 323.14 357.128 331.164H359.628H362.128C362.128 321.672 358.209 313.343 350.789 307.676C343.415 302.044 332.821 299.214 319.695 300.119L319.867 302.613ZM359.628 331.164H357.128C357.128 336.127 356.449 340.248 354.327 343.809C352.218 347.349 348.496 350.645 341.81 353.57L342.812 355.861L343.815 358.151C351.141 354.945 355.827 351.06 358.622 346.368C361.405 341.697 362.128 336.534 362.128 331.164H359.628ZM342.812 355.861L341.835 353.56L302.25 370.375L303.227 372.676L304.205 374.977L343.79 358.162L342.812 355.861ZM303.227 372.676L301.138 374.049C305.593 380.828 312.306 384.634 320.042 384.634V382.134V379.634C314.116 379.634 308.919 376.784 305.316 371.303L303.227 372.676ZM320.042 382.134V384.634C325.507 384.634 330.702 383.484 334.594 380.623C338.604 377.675 340.934 373.126 340.934 367.071H338.434H335.934C335.934 371.7 334.234 374.682 331.632 376.595C328.912 378.594 324.911 379.634 320.042 379.634V382.134ZM298.148 352.708H295.648C295.648 354.094 295.645 355.469 295.842 357.046L298.323 356.736L300.803 356.426C300.65 355.201 300.648 354.124 300.648 352.708H298.148ZM298.323 356.736L299.311 359.033L331.89 345.02L330.902 342.724L329.914 340.427L297.335 354.44L298.323 356.736ZM330.902 342.724L331.887 345.022C333.742 344.226 335.804 343.24 337.377 341.667C339.068 339.976 340.058 337.756 340.058 334.842H337.558H335.058C335.058 336.482 334.559 337.414 333.841 338.132C333.006 338.967 331.74 339.645 329.917 340.426L330.902 342.724ZM337.558 334.842H340.058C340.058 330.174 337.75 326.365 334.329 323.799C330.945 321.261 326.457 319.906 321.794 319.906V322.406V324.906C325.538 324.906 328.932 326.002 331.329 327.799C333.687 329.568 335.058 331.978 335.058 334.842H337.558ZM321.794 322.406V319.906C315.648 319.906 309.054 322.25 304.008 327.637C298.95 333.037 295.648 341.274 295.648 352.708H298.148H300.648C300.648 342.247 303.651 335.333 307.657 331.055C311.675 326.766 316.905 324.906 321.794 324.906V322.406Z" fill="#F36F25"/>
<path d="M500.848 305.416H524.669L486.66 400H466.167L444.798 341.323L423.429 400H403.111L364.927 305.416H388.748L412.92 365.669L434.639 305.416H454.957L476.676 365.669L500.848 305.416ZM548.065 292.629C541.059 292.629 535.454 286.849 535.454 280.018C535.454 273.012 541.059 267.231 548.065 267.231C555.071 267.231 560.676 273.012 560.676 280.018C560.676 286.849 555.071 292.629 548.065 292.629ZM559.1 400H537.03V305.416H559.1V400ZM635.843 347.628L672.276 400H646.002L622.706 366.545L599.235 400H579.968V267.231H602.038V359.364L639.696 305.24H665.269L635.843 347.628ZM737.183 367.071H760.129C760.129 390.542 745.416 402.627 719.668 402.627C691.292 402.627 673.952 381.433 673.952 352.708C673.952 318.727 697.248 304.189 718.617 302.613C744.014 300.861 758.377 313.648 758.377 331.164C758.377 341.498 755.575 349.73 741.562 355.861L701.977 372.676C706.005 378.806 711.961 382.134 718.792 382.134C729.126 382.134 737.183 377.755 737.183 367.071ZM696.897 352.708C696.897 354.109 696.897 355.335 697.072 356.736L729.652 342.724C733.33 341.147 736.307 339.396 736.307 334.842C736.307 327.31 728.951 322.406 720.543 322.406C709.509 322.406 696.897 330.813 696.897 352.708Z" fill="#050021"/>
<path d="M500.848 305.416V302.916H499.157L498.528 304.485L500.848 305.416ZM524.669 305.416L526.989 306.348L528.368 302.916H524.669V305.416ZM486.66 400V402.5H488.35L488.98 400.932L486.66 400ZM466.167 400L463.818 400.855L464.417 402.5H466.167V400ZM444.798 341.323L447.147 340.467L444.798 334.017L442.449 340.467L444.798 341.323ZM423.429 400V402.5H425.179L425.778 400.855L423.429 400ZM403.111 400L400.793 400.936L401.424 402.5H403.111V400ZM364.927 305.416V302.916H361.221L362.609 306.351L364.927 305.416ZM388.748 305.416L391.068 304.485L390.439 302.916H388.748V305.416ZM412.92 365.669L410.599 366.6L413.044 372.695L415.271 366.517L412.92 365.669ZM434.639 305.416V302.916H432.883L432.287 304.568L434.639 305.416ZM454.957 305.416L457.309 304.568L456.713 302.916H454.957V305.416ZM476.676 365.669L474.325 366.517L476.552 372.695L478.997 366.6L476.676 365.669ZM500.848 305.416V307.916H524.669V305.416V302.916H500.848V305.416ZM524.669 305.416L522.35 304.483L484.341 399.068L486.66 400L488.98 400.932L526.989 306.348L524.669 305.416ZM486.66 400V397.5H466.167V400V402.5H486.66V400ZM466.167 400L468.516 399.145L447.147 340.467L444.798 341.323L442.449 342.178L463.818 400.855L466.167 400ZM444.798 341.323L442.449 340.467L421.08 399.145L423.429 400L425.778 400.855L447.147 342.178L444.798 341.323ZM423.429 400V397.5H403.111V400V402.5H423.429V400ZM403.111 400L405.429 399.064L367.245 304.48L364.927 305.416L362.609 306.351L400.793 400.936L403.111 400ZM364.927 305.416V307.916H388.748V305.416V302.916H364.927V305.416ZM388.748 305.416L386.428 306.346L410.599 366.6L412.92 365.669L415.24 364.739L391.068 304.485L388.748 305.416ZM412.92 365.669L415.271 366.517L436.991 306.263L434.639 305.416L432.287 304.568L410.568 364.822L412.92 365.669ZM434.639 305.416V307.916H454.957V305.416V302.916H434.639V305.416ZM454.957 305.416L452.605 306.263L474.325 366.517L476.676 365.669L479.028 364.822L457.309 304.568L454.957 305.416ZM476.676 365.669L478.997 366.6L503.168 306.346L500.848 305.416L498.528 304.485L474.356 364.739L476.676 365.669ZM559.1 400V402.5H561.6V400H559.1ZM537.03 400H534.53V402.5H537.03V400ZM537.03 305.416V302.916H534.53V305.416H537.03ZM559.1 305.416H561.6V302.916H559.1V305.416ZM548.065 292.629V290.129C542.462 290.129 537.954 285.491 537.954 280.018H535.454H532.954C532.954 288.207 539.656 295.129 548.065 295.129V292.629ZM535.454 280.018H537.954C537.954 274.347 542.484 269.731 548.065 269.731V267.231V264.731C539.633 264.731 532.954 271.676 532.954 280.018H535.454ZM548.065 267.231V269.731C553.646 269.731 558.176 274.347 558.176 280.018H560.676H563.176C563.176 271.676 556.497 264.731 548.065 264.731V267.231ZM560.676 280.018H558.176C558.176 285.491 553.668 290.129 548.065 290.129V292.629V295.129C556.474 295.129 563.176 288.207 563.176 280.018H560.676ZM559.1 400V397.5H537.03V400V402.5H559.1V400ZM537.03 400H539.53V305.416H537.03H534.53V400H537.03ZM537.03 305.416V307.916H559.1V305.416V302.916H537.03V305.416ZM559.1 305.416H556.6V400H559.1H561.6V305.416H559.1ZM635.843 347.628L633.789 346.203L632.799 347.63L633.791 349.056L635.843 347.628ZM672.276 400V402.5H677.06L674.328 398.572L672.276 400ZM646.002 400L643.95 401.429L644.697 402.5H646.002V400ZM622.706 366.545L624.758 365.117L622.714 362.181L620.66 365.109L622.706 366.545ZM599.235 400V402.5H600.535L601.282 401.436L599.235 400ZM579.968 400H577.468V402.5H579.968V400ZM579.968 267.231V264.731H577.468V267.231H579.968ZM602.038 267.231H604.538V264.731H602.038V267.231ZM602.038 359.364H599.538V367.334L604.09 360.792L602.038 359.364ZM639.696 305.24V302.74H638.39L637.644 303.813L639.696 305.24ZM665.269 305.24L667.323 306.666L670.048 302.74H665.269V305.24ZM635.843 347.628L633.791 349.056L670.223 401.428L672.276 400L674.328 398.572L637.895 346.201L635.843 347.628ZM672.276 400V397.5H646.002V400V402.5H672.276V400ZM646.002 400L648.054 398.571L624.758 365.117L622.706 366.545L620.655 367.974L643.95 401.429L646.002 400ZM622.706 366.545L620.66 365.109L597.189 398.564L599.235 400L601.282 401.436L624.753 367.981L622.706 366.545ZM599.235 400V397.5H579.968V400V402.5H599.235V400ZM579.968 400H582.468V267.231H579.968H577.468V400H579.968ZM579.968 267.231V269.731H602.038V267.231V264.731H579.968V267.231ZM602.038 267.231H599.538V359.364H602.038H604.538V267.231H602.038ZM602.038 359.364L604.09 360.792L641.749 306.668L639.696 305.24L637.644 303.813L599.986 357.936L602.038 359.364ZM639.696 305.24V307.74H665.269V305.24V302.74H639.696V305.24ZM665.269 305.24L663.216 303.815L633.789 346.203L635.843 347.628L637.897 349.054L667.323 306.666L665.269 305.24ZM737.183 367.071V364.571H734.683V367.071H737.183ZM760.129 367.071H762.629V364.571H760.129V367.071ZM718.617 302.613L718.445 300.119L718.433 300.12L718.617 302.613ZM741.562 355.861L742.54 358.162L742.552 358.156L742.564 358.151L741.562 355.861ZM701.977 372.676L700.999 370.375L698.243 371.546L699.888 374.049L701.977 372.676ZM697.072 356.736L694.592 357.046L695.004 360.347L698.06 359.033L697.072 356.736ZM729.652 342.724L728.667 340.426L728.664 340.427L729.652 342.724ZM737.183 367.071V369.571H760.129V367.071V364.571H737.183V367.071ZM760.129 367.071H757.629C757.629 378.261 754.143 386.385 747.92 391.758C741.636 397.184 732.192 400.127 719.668 400.127V402.627V405.127C732.891 405.127 743.678 402.027 751.188 395.543C758.758 389.005 762.629 379.351 762.629 367.071H760.129ZM719.668 402.627V400.127C706.145 400.127 695.415 395.099 688.04 386.781C680.635 378.431 676.452 366.578 676.452 352.708H673.952H671.452C671.452 367.563 675.938 380.67 684.298 390.098C692.687 399.559 704.815 405.127 719.668 405.127V402.627ZM673.952 352.708H676.452C676.452 336.337 682.04 324.885 689.994 317.321C697.997 309.709 708.583 305.86 718.801 305.106L718.617 302.613L718.433 300.12C707.282 300.942 695.535 305.15 686.548 313.697C677.511 322.291 671.452 335.098 671.452 352.708H673.952ZM718.617 302.613L718.789 305.107C731.06 304.261 740.347 306.947 746.504 311.65C752.615 316.317 755.877 323.14 755.877 331.164H758.377H760.877C760.877 321.672 756.958 313.343 749.539 307.676C742.165 302.044 731.571 299.214 718.445 300.119L718.617 302.613ZM758.377 331.164H755.877C755.877 336.127 755.198 340.248 753.077 343.809C750.968 347.349 747.246 350.645 740.56 353.57L741.562 355.861L742.564 358.151C749.891 354.945 754.577 351.06 757.372 346.368C760.155 341.697 760.877 336.534 760.877 331.164H758.377ZM741.562 355.861L740.585 353.56L700.999 370.375L701.977 372.676L702.954 374.977L742.54 358.162L741.562 355.861ZM701.977 372.676L699.888 374.049C704.343 380.828 711.056 384.634 718.792 384.634V382.134V379.634C712.866 379.634 707.668 376.784 704.066 371.303L701.977 372.676ZM718.792 382.134V384.634C724.257 384.634 729.452 383.484 733.344 380.623C737.354 377.675 739.683 373.126 739.683 367.071H737.183H734.683C734.683 371.7 732.984 374.682 730.382 376.595C727.662 378.594 723.661 379.634 718.792 379.634V382.134ZM696.897 352.708H694.397C694.397 354.094 694.395 355.469 694.592 357.046L697.072 356.736L699.553 356.426C699.4 355.201 699.397 354.124 699.397 352.708H696.897ZM697.072 356.736L698.06 359.033L730.639 345.02L729.652 342.724L728.664 340.427L696.085 354.44L697.072 356.736ZM729.652 342.724L730.636 345.022C732.492 344.226 734.554 343.24 736.127 341.667C737.818 339.976 738.807 337.756 738.807 334.842H736.307H733.807C733.807 336.482 733.309 337.414 732.591 338.132C731.755 338.967 730.489 339.645 728.667 340.426L729.652 342.724ZM736.307 334.842H738.807C738.807 330.174 736.5 326.365 733.078 323.799C729.694 321.261 725.206 319.906 720.543 319.906V322.406V324.906C724.288 324.906 727.682 326.002 730.078 327.799C732.437 329.568 733.807 331.978 733.807 334.842H736.307ZM720.543 322.406V319.906C714.398 319.906 707.804 322.25 702.758 327.637C697.7 333.037 694.397 341.274 694.397 352.708H696.897H699.397C699.397 342.247 702.4 335.333 706.407 331.055C710.425 326.766 715.654 324.906 720.543 324.906V322.406Z" fill="#050021"/>
<path d="M384.505 0C288.125 0 210 78.1254 210 174.505C210 198.21 214.787 220.804 223.382 241.395C226.62 249.183 236.697 255.223 245.14 255.223H248.436C256.879 255.223 267.621 249.591 272.426 242.658L282.807 227.671C287.613 220.738 296.35 219.94 302.314 225.905L304.708 228.298C310.682 234.281 319.22 233.36 323.779 226.256L373.041 134.331C377.61 127.227 385.435 126.932 390.536 133.657L446.304 222.599C451.404 229.333 461.889 232.23 469.725 229.096L485.604 222.713C493.44 219.56 505.577 220.652 512.71 225.173L531.201 236.846C538.343 241.357 546.967 238.764 549.693 230.777C555.723 213.121 559 194.193 559 174.495C559.009 78.1254 480.884 0 384.505 0Z" fill="url(#paint0_linear_2012_13)"/>
<defs>
<linearGradient id="paint0_linear_2012_13" x1="384.5" y1="0" x2="384.5" y2="255.223" gradientUnits="userSpaceOnUse">
<stop stop-color="#ED3210"/>
<stop offset="1" stop-color="#F6931C"/>
</linearGradient>
</defs>
</svg>
